<svg width="76" height="32" viewBox="0 0 76 32" fill="none" xmlns="http://www.w3.org/2000/svg">
<g clip-path="url(#clip0_234_10927)">
<path d="M37.6961 11.1248L36.7398 10.1312C36.4319 9.78603 36.2314 9.58545 36.0588 9.95863L34.3221 12.6732C32.085 13.1072 29.6997 13.1675 27.3413 13.2271C21.7338 13.3689 16.2793 13.5069 13.3354 18.6541C13.2403 18.8136 13.1505 18.9797 13.0662 19.1528C13.1534 18.9815 13.2432 18.8154 13.3354 18.6541C15.4462 15.1146 20.171 14.841 25.3384 14.5417C28.2675 14.3721 31.3389 14.1942 34.157 13.4086C34.2344 13.4218 34.3427 13.3952 34.4681 13.3219L34.4859 13.3138C36.6601 12.6657 38.6721 11.6364 40.3361 9.94464C39.5988 10.5815 38.8061 11.0904 37.9704 11.498C37.9457 11.4091 37.857 11.2956 37.6961 11.1248Z" fill="#C5CBD3"/>
<path fill-rule="evenodd" clip-rule="evenodd" d="M31.4314 3.8012L49.8617 5.27992C50.7667 5.34056 50.6174 5.50382 50.1696 5.91432L41.1807 14.4741C40.69 15.0008 40.5686 14.8715 40.0241 14.2916L39.9632 14.2269L36.4413 10.3551C35.9702 9.884 35.8956 9.78604 36.7025 9.49683L45.4442 6.75397L35.611 8.47059C35.5086 8.49056 35.4221 8.50991 35.3479 8.52654C35.1587 8.5689 35.0485 8.59357 34.9537 8.56578C34.8215 8.52703 34.7192 8.38629 34.4743 8.04927L34.4448 8.00878L31.1609 4.36097C30.7644 3.92715 30.7877 3.70324 31.4314 3.8012ZM6.34463 23.6309V25.1703H0.854248V15.6309H6.13472V17.1656H2.7388V19.4747H5.9388V20.9767H2.7388V23.6309H6.34463ZM7.73005 18.705C8.20119 18.4344 9.08282 18.1219 10.1977 18.1219C12.4088 18.1219 13.0012 19.4887 13.0012 21V23.533C13.0012 24.1394 13.0292 24.7505 13.1038 25.1703H11.4012L11.2892 24.4519H11.2519C10.8554 24.9977 10.1604 25.3102 9.36737 25.3102C8.05658 25.3102 7.23559 24.354 7.23559 23.2344C7.23559 21.4618 8.85891 20.6315 11.1166 20.6315C11.1166 19.9458 10.8694 19.428 9.8385 19.428C9.19477 19.428 8.55104 19.6239 8.0939 19.8992L7.73005 18.705ZM11.1633 21.807C10.1324 21.807 9.07815 22.0403 9.07815 23.0478C9.07815 23.7056 9.50264 23.9901 9.97378 23.9901C10.4169 23.9901 11.1633 23.6776 11.1633 22.8006V21.807ZM14.6245 23.505C14.993 23.7149 15.7021 23.9621 16.2852 23.9621C16.9429 23.9621 17.2647 23.6916 17.2647 23.2671C17.2647 22.8473 17.0268 22.6234 16.2478 22.3015C14.9184 21.779 14.4379 21.0467 14.4379 20.291C14.4379 19.0502 15.4548 18.1079 17.0408 18.1079C17.7732 18.1079 18.3936 18.2805 18.7994 18.4904L18.4403 19.7825C18.1324 19.6193 17.6379 19.4234 17.1015 19.4234C16.5324 19.4234 16.2245 19.7079 16.2245 20.0811C16.2245 20.4636 16.4811 20.6642 17.3021 21C18.5056 21.4805 19.0607 22.1522 19.0607 23.1085C19.0607 24.4239 18.0344 25.2916 16.2572 25.2916C15.4782 25.2916 14.7225 25.105 14.2513 24.8344L14.6245 23.505ZM21.7429 22.2642C21.7895 23.4397 22.6572 23.9108 23.6741 23.9108C24.3831 23.9108 24.9289 23.7895 25.414 23.6263L25.6846 24.8951C25.1015 25.1423 24.2712 25.2916 23.3895 25.2916C21.1971 25.2916 19.9423 23.9481 19.9423 21.8024C19.9423 19.8199 21.1225 18.1032 23.2029 18.1032C24.9289 18.1032 26.0578 19.2974 26.0578 21.5318C26.0578 21.8024 26.0438 22.0636 26.0064 22.2642H21.7429ZM24.3131 20.986C24.3225 20.263 24.0239 19.3814 23.0956 19.3814C22.1907 19.3814 21.8082 20.3003 21.7569 20.986H24.3131ZM36.4134 15.6216L36.9732 25.1656H35.1773L34.9907 21.4572C34.9394 20.2024 34.8787 18.663 34.8881 17.6974H34.8554C34.5662 18.8356 34.221 20.1044 33.8852 21.168L32.6817 25.0303H31.2589L30.1767 21.2333C29.8548 20.1511 29.5563 18.8636 29.3231 17.6974H29.2857C29.2624 18.9009 29.1971 20.3143 29.1365 21.4945L28.9499 25.1656H27.2286L27.8863 15.6216H30.214L31.2682 19.2088C31.5901 20.3656 31.8747 21.4805 32.0892 22.572H32.1266C32.3598 21.5038 32.6443 20.3516 32.9802 19.2088L34.0951 15.6216H36.4134ZM42.4543 18.2525H44.4274L42.8134 23.0572C42.0204 25.2916 41.4233 26.5044 40.621 27.2881C39.9353 27.9318 39.2029 28.1837 38.7831 28.2537L38.312 26.705C38.6105 26.6164 38.9697 26.4204 39.3056 26.1965C39.926 25.7627 40.2478 25.0537 40.2478 24.9184C40.2478 24.8438 40.2198 24.7458 40.1732 24.6059L37.7802 18.2525H39.8513L40.8916 21.863C40.9217 21.9774 40.9536 22.0962 40.9858 22.2162L40.9858 22.2163L40.986 22.2171C41.0732 22.5421 41.1627 22.876 41.2274 23.1551H41.2647C41.3487 22.782 41.4607 22.3015 41.5633 21.863L42.4543 18.2525ZM51.3685 15.6216V17.2123H48.9382V25.1656H47.0537V17.2123H44.6327V15.6216H51.3685ZM54.0741 19.4607C54.4099 18.565 55.1796 18.1079 55.8327 18.1079C56.0099 18.1079 56.1312 18.1172 56.2572 18.1452V19.8945C56.1203 19.8696 55.9586 19.8572 55.772 19.8572C54.9184 19.8572 54.2607 20.4123 54.2607 21.5924V25.1656H52.3761V20.4123C52.3761 19.61 52.3514 18.956 52.3291 18.3652V18.3651L52.3248 18.2525H53.9481L54.0228 19.4607H54.0741ZM58.249 17.3476C57.6892 17.3476 57.2368 16.9091 57.2368 16.368C57.2368 15.8269 57.6892 15.3884 58.249 15.3884C58.8088 15.3884 59.2612 15.8269 59.2612 16.368C59.2612 16.9091 58.8088 17.3476 58.249 17.3476ZM57.3114 18.2525H59.1959V25.1656H57.3114V18.2525ZM62.5825 19.1948H62.6059C63.0677 18.4904 63.8 18.1032 64.7143 18.1032C66.2677 18.1032 67.4198 19.5213 67.4198 21.6391C67.4198 24.186 65.9318 25.3009 64.4904 25.3009C63.7114 25.3009 63.1143 24.9557 62.8064 24.4939H62.7831V27.9318H60.8939V20.5102C60.8939 19.6193 60.8706 18.8869 60.8473 18.2525H62.4939L62.5825 19.1948ZM62.7831 22.3715C62.7831 23.379 63.4035 23.8595 64.0473 23.8595C65.0035 23.8595 65.498 22.9452 65.498 21.7044C65.498 20.4729 65.0128 19.582 64.0846 19.582C63.3522 19.582 62.7831 20.249 62.7831 21.084V22.3715ZM64.8542 27.6286C64.8542 27.7032 64.8776 27.7546 64.9242 27.8012C64.9895 27.8665 65.0502 27.8758 65.1108 27.8758C65.2134 27.8758 65.2741 27.8525 65.2974 27.7919C65.3254 27.7266 65.3347 27.6659 65.3347 27.5773C65.3347 27.5167 65.3114 27.456 65.2507 27.4047C65.1854 27.3534 65.1388 27.3301 65.0642 27.3301C64.9755 27.3301 64.9242 27.3674 64.9009 27.428C64.8636 27.4933 64.8542 27.568 64.8542 27.6286ZM66.4636 27.8292C66.5242 27.8898 66.5895 27.9272 66.6735 27.9645C66.7388 28.0018 66.8228 28.0111 66.9347 28.0111C67.1073 28.0111 67.2846 27.9878 67.4572 27.9272C67.6298 27.8665 67.779 27.7919 67.9143 27.6893C68.0636 27.5913 68.1895 27.4793 68.3108 27.3441C68.345 27.3036 68.3777 27.2632 68.4088 27.2228C68.4134 27.4887 68.4741 27.6706 68.586 27.8012C68.698 27.9256 68.8333 27.9878 68.9919 27.9878C69.1178 27.9878 69.2531 27.9505 69.379 27.8898C69.5143 27.8152 69.6403 27.7172 69.7382 27.5773C69.8502 27.442 69.9341 27.2788 70.0088 27.0828C70.0834 26.8823 70.1114 26.6583 70.1114 26.4111C70.1114 26.2992 70.099 26.1996 70.0741 26.1126C70.0461 26.0146 70.0088 25.94 69.9621 25.8653C69.9167 25.7993 69.864 25.7552 69.8105 25.7104C69.8035 25.7045 69.7965 25.6987 69.7895 25.6928C69.7149 25.6554 69.6263 25.6321 69.5376 25.6321C69.379 25.6321 69.2158 25.6788 69.0805 25.7814C68.9452 25.8793 68.8193 26.0006 68.7213 26.1639C68.6233 26.3132 68.5487 26.4858 68.4834 26.6723C68.4803 26.691 68.4772 26.7081 68.4741 26.7237C68.4647 26.7299 68.4554 26.7376 68.4461 26.747C68.4088 26.7843 68.3854 26.8216 68.3715 26.8449C68.3108 26.9569 68.2362 27.0595 68.1522 27.1575C68.0636 27.2554 67.9656 27.3441 67.863 27.428C67.765 27.5167 67.6438 27.568 67.5318 27.6146C67.4059 27.6659 67.2846 27.6893 67.1446 27.6893C67.0093 27.6893 66.9114 27.6519 66.8368 27.568C66.7761 27.5027 66.7248 27.442 66.7015 27.3534C66.6735 27.2694 66.6642 27.1808 66.6642 27.0688C66.6642 26.9693 66.6766 26.8574 66.7015 26.733C66.7248 26.621 66.7621 26.5137 66.7994 26.4111C66.8368 26.3132 66.8834 26.2152 66.9347 26.1266C66.986 26.0379 67.0327 25.9773 67.084 25.9167C67.1016 25.9038 67.1176 25.891 67.1328 25.8788C67.162 25.8554 67.1886 25.834 67.2193 25.8187C67.2706 25.7907 67.3219 25.7814 67.3825 25.7814C67.4572 25.7814 67.4945 25.8047 67.5038 25.856C67.5178 25.9027 67.5318 25.954 67.5318 26.0146C67.5318 26.1126 67.5178 26.1872 67.4805 26.2525C67.4432 26.3132 67.4198 26.3738 67.4198 26.4111C67.4198 26.4484 67.4432 26.4764 67.4805 26.4764C67.5411 26.4764 67.5924 26.4484 67.6438 26.4111C67.7044 26.3645 67.7417 26.2898 67.7557 26.2012C67.7586 26.1738 67.7619 26.1468 67.7652 26.1207C67.7724 26.0624 67.779 26.0084 67.779 25.9633C67.779 25.8047 67.7417 25.6928 67.6438 25.6181C67.5551 25.5435 67.4292 25.5062 67.2846 25.5062C67.1586 25.5062 67.0327 25.5295 66.9207 25.5808C66.8134 25.6321 66.7108 25.7067 66.6268 25.7907C66.5615 25.856 66.4869 25.94 66.4403 26.0286C66.3749 26.1126 66.3283 26.2245 66.291 26.3272C66.2537 26.4391 66.2164 26.5511 66.193 26.6583C66.165 26.7703 66.1557 26.8823 66.1557 27.0082C66.1557 27.1575 66.179 27.3161 66.2303 27.456C66.277 27.6053 66.3516 27.7266 66.4636 27.8292ZM69.0665 26.4251C69.1318 26.3132 69.2064 26.2152 69.2811 26.1406C69.365 26.0659 69.4537 26.0286 69.5516 26.0286C69.6496 26.0286 69.7382 26.0753 69.7895 26.1779C69.8362 26.2758 69.8595 26.4018 69.8735 26.5371C69.8735 26.7097 69.8502 26.8823 69.8129 27.0222C69.7755 27.1575 69.7149 27.2788 69.6403 27.3814C69.5656 27.4793 69.491 27.554 69.4024 27.6053C69.3184 27.6519 69.2438 27.6893 69.1691 27.6893C69.0805 27.6893 69.0059 27.6519 68.9452 27.568C68.8799 27.4933 68.8566 27.3674 68.8566 27.1948C68.8566 27.0688 68.8799 26.9476 68.9172 26.8076C68.9545 26.6723 69.0059 26.5511 69.0665 26.4251ZM72.2432 27.5167C72.2572 27.6053 72.2805 27.6893 72.3038 27.7406C72.2665 27.8152 72.3038 27.8525 72.3551 27.8525C72.3924 27.8525 72.4298 27.8385 72.4531 27.8292L72.5277 27.7546C72.5399 27.7279 72.5596 27.6948 72.5842 27.6535C72.607 27.6155 72.6339 27.5704 72.663 27.5167C72.6837 27.4811 72.704 27.4456 72.7247 27.4093C72.7692 27.3313 72.8156 27.2498 72.8729 27.1575C72.9475 27.0315 73.0362 26.8962 73.1248 26.761C73.1827 26.6645 73.2428 26.5769 73.302 26.4905C73.3287 26.4516 73.3553 26.4129 73.3814 26.3738C73.3894 26.3636 73.3974 26.3536 73.4052 26.3436C73.4836 26.2443 73.5514 26.1584 73.6193 26.1032C73.6939 26.0286 73.7545 25.9913 73.7919 25.9913C73.8198 25.9913 73.8432 26.0006 73.8525 26.0286L73.8898 26.1032C73.8898 26.1149 73.8933 26.1301 73.8968 26.1452C73.9003 26.1604 73.9038 26.1755 73.9038 26.1872V26.2618C73.9038 26.3955 73.8959 26.5264 73.8879 26.6568C73.8854 26.6993 73.8828 26.7418 73.8805 26.7843C73.8525 26.9569 73.8525 27.1341 73.8525 27.3067C73.8525 27.3814 73.8525 27.456 73.8665 27.554C73.869 27.57 73.8714 27.586 73.8738 27.6018C73.8845 27.6732 73.8949 27.7426 73.9178 27.8152C73.9411 27.8992 73.9924 27.9645 74.0391 28.0111C74.1044 28.0764 74.179 28.0997 74.277 28.0997C74.3889 28.0997 74.5009 28.0624 74.6222 28.0018C74.7481 27.9365 74.8694 27.8525 74.9814 27.7546C75.1073 27.6519 75.2053 27.554 75.3172 27.442C75.3704 27.3813 75.4208 27.3274 75.4654 27.2796C75.5031 27.2394 75.5367 27.2035 75.5645 27.1715C75.5784 27.1575 75.5924 27.1342 75.6018 27.1062C75.605 27.1007 75.6083 27.0957 75.6114 27.0911C75.6216 27.0758 75.6298 27.0634 75.6298 27.0455C75.6298 27.0255 75.6257 27.0095 75.622 26.9947C75.6188 26.9819 75.6158 26.9699 75.6158 26.9569C75.6033 26.932 75.5784 26.9196 75.5411 26.9196C75.5038 26.9196 75.4665 26.9336 75.4292 26.9849C75.3919 27.0222 75.3685 27.0595 75.3545 27.0828C75.3172 27.1342 75.2706 27.1948 75.1959 27.2788C75.1213 27.3674 75.0467 27.442 74.958 27.5167C74.871 27.5913 74.7839 27.6535 74.6968 27.7032C74.6128 27.7546 74.5382 27.7919 74.4636 27.7919C74.4123 27.7919 74.3889 27.7779 74.361 27.7546C74.3426 27.7325 74.3329 27.7047 74.3228 27.6757C74.3201 27.6678 74.3173 27.6599 74.3143 27.6519C74.3003 27.6146 74.3003 27.5773 74.3003 27.54V27.428C74.3003 27.2072 74.3128 26.9849 74.3376 26.761C74.361 26.5371 74.3749 26.3272 74.3749 26.0893C74.3749 26.0461 74.3679 26.0077 74.3604 25.9673C74.3574 25.9509 74.3543 25.9342 74.3516 25.9167C74.3376 25.856 74.3143 25.8047 74.291 25.7534C74.2661 25.7036 74.2288 25.6663 74.179 25.6414C74.1277 25.6041 74.0671 25.5948 74.0018 25.5948C73.9178 25.5948 73.8198 25.6321 73.7312 25.6788C73.6441 25.741 73.5695 25.8032 73.5073 25.8653C73.4327 25.94 73.358 26.0286 73.2974 26.1266C73.2788 26.1537 73.2589 26.1817 73.2388 26.2101C73.1932 26.2743 73.1464 26.3403 73.1108 26.4018C73.0222 26.5137 72.9475 26.621 72.8636 26.747C72.7749 26.8589 72.7003 26.9709 72.6257 27.0968C72.6163 27.1062 72.6024 27.1202 72.5884 27.1575C72.579 27.1948 72.551 27.2088 72.5417 27.2088C72.5277 27.2088 72.5137 27.1948 72.5137 27.1575C72.5044 27.1202 72.5044 27.0828 72.5044 27.0315C72.5044 27.0088 72.5011 26.9882 72.4977 26.9672C72.4941 26.9451 72.4904 26.9225 72.4904 26.8962V26.7983C72.4904 26.6863 72.4904 26.5744 72.5044 26.4484C72.5044 26.3936 72.5066 26.3387 72.5089 26.2828C72.5113 26.2245 72.5137 26.1651 72.5137 26.1032C72.5137 26.0659 72.5137 26.0146 72.5044 25.954C72.499 25.9343 72.4957 25.9132 72.4923 25.8918C72.487 25.8575 72.4814 25.8223 72.4671 25.7907C72.4531 25.7441 72.4158 25.6928 72.3924 25.6694C72.3551 25.6321 72.3178 25.6181 72.2572 25.6181C72.1825 25.6181 72.0799 25.6554 71.9959 25.7441C71.8933 25.828 71.8093 25.9167 71.7114 26.0379L71.4502 26.3738C71.4303 26.4036 71.4115 26.4317 71.3938 26.4581C71.3449 26.5309 71.305 26.5905 71.2776 26.635C71.3009 26.5231 71.3242 26.4111 71.3475 26.2898C71.3724 26.1779 71.4097 26.0659 71.4595 25.954C71.4735 25.9167 71.4968 25.8653 71.5248 25.8047C71.5322 25.7885 71.5396 25.7713 71.5471 25.7538C71.5633 25.716 71.5803 25.6765 71.5994 25.6414C71.6111 25.6111 71.6204 25.5831 71.6298 25.5551C71.6391 25.5272 71.6484 25.4992 71.6601 25.4688L71.6624 25.459C71.6751 25.404 71.6834 25.368 71.6834 25.3196C71.6834 25.2823 71.6741 25.2449 71.6461 25.2216C71.6228 25.1983 71.5994 25.1843 71.5481 25.1843C71.4595 25.1843 71.3755 25.2076 71.2776 25.2449C71.1749 25.2823 71.1143 25.3429 71.063 25.4175C71.0397 25.4688 71.0163 25.5435 70.979 25.6694C70.9417 25.7814 70.9044 25.9167 70.8671 26.0753C70.8447 26.1648 70.8223 26.2644 70.7999 26.364C70.785 26.4305 70.7701 26.4969 70.7551 26.5604C70.7504 26.5823 70.7457 26.604 70.741 26.6256C70.7086 26.7744 70.6775 26.9169 70.6572 27.0595C70.6292 27.2181 70.6059 27.3534 70.5919 27.4933C70.5885 27.5375 70.5844 27.5791 70.5807 27.6178C70.5742 27.6856 70.5685 27.7444 70.5685 27.7919C70.5685 27.8292 70.5825 27.8525 70.6059 27.8758C70.6199 27.8992 70.6572 27.9132 70.6945 27.9132C70.7551 27.9132 70.7924 27.8992 70.8298 27.8525C70.8671 27.8152 70.8904 27.7779 70.9137 27.7266L71.0257 27.5027C71.0485 27.4635 71.0708 27.4244 71.0933 27.3848C71.1351 27.3113 71.1777 27.2363 71.2263 27.1575C71.3009 27.0315 71.3849 26.8962 71.4735 26.761C71.5621 26.621 71.6461 26.4997 71.7347 26.3738C71.7563 26.3465 71.7768 26.3201 71.7964 26.2948C71.8572 26.2163 71.9092 26.1491 71.9586 26.1032C72.0333 26.0286 72.0799 25.9913 72.1172 25.9913C72.1545 25.9913 72.1685 26.0006 72.1825 26.0379C72.1825 26.0628 72.1867 26.0836 72.1894 26.0974C72.1908 26.1043 72.1919 26.1095 72.1919 26.1126V26.8729C72.1919 26.9289 72.1954 26.9849 72.1988 27.0409C72.2023 27.0968 72.2058 27.1528 72.2058 27.2088C72.2121 27.2563 72.2173 27.303 72.2225 27.3487C72.229 27.4061 72.2354 27.4621 72.2432 27.5167Z" fill="#6B7280"/>
</g>
<defs>
<clipPath id="clip0_234_10927">
<rect width="74.8222" height="32" fill="white" transform="translate(0.849609)"/>
</clipPath>
</defs>
</svg>
