<svg width="102" height="32" viewBox="0 0 102 32" fill="none" xmlns="http://www.w3.org/2000/svg">
<g clip-path="url(#clip0_234_10909)">
<path d="M66.5323 31.9871C68.4678 31.9613 70.3001 31.2065 71.6291 29.8516C72.9839 28.4968 73.7388 26.6645 73.7388 24.7548V7.29678C73.7388 5.3613 72.9839 3.52904 71.6549 2.14839C70.3001 0.793554 68.4678 0.0129089 66.5323 0.0129089H48.9904C47.0549 0.0387154 45.2226 0.793554 43.8936 2.14839C42.5388 3.52904 41.7839 5.3613 41.7839 7.29678V24.7806C41.8097 28.7484 45.0226 31.9613 48.9904 31.9871" fill="#6B7280"/>
<path d="M61.5647 16.9936C60.8873 19.2516 61.9905 21.5161 64.326 20.6065C63.6486 22.2387 62.5195 24.6774 62.5195 27.2129C62.5195 27.2129 62.5195 28.9226 63.7711 29.3484C63.7711 29.3484 65.526 29.7742 65.1518 28.2194C64.8744 27.2387 64.8034 26.2387 64.926 25.2323C65.3518 23.1484 66.0034 21.1097 66.8615 19.1548C66.8615 19.1548 69.5453 13.5484 71.1002 10.9419C71.1002 10.9419 71.7518 9.60646 70.4228 9.60646C70.0228 9.60646 69.6421 9.80646 69.3969 10.1355L65.6034 16.8903C65.0292 17.9484 64.4744 18.271 64.0486 18.271C63.0937 18.271 63.2937 16.7419 63.4486 16.1871C63.8744 14.3032 64.5518 12.4968 65.455 10.7613C66.1324 9.28388 64.7776 9.15485 64.7776 9.15485C63.9195 8.92904 63.2679 10.3355 63.2679 10.3355L61.7647 13.4C60.784 15.1097 59.7066 16.7419 58.5518 18.3226C58.5518 18.3226 58.3518 18.5742 58.1969 18.4774C58.0486 18.3484 58.126 18.0968 58.126 18.0968C58.3776 16.0129 58.8034 13.9548 59.3776 11.9161C59.4034 11.7936 59.4292 11.6903 59.4292 11.5678C59.455 11.2903 59.3776 11.0129 59.2034 10.8129C59.0292 10.5871 58.7776 10.4645 58.5002 10.4645C57.8228 10.3871 57.5002 10.7097 56.8937 11.4387C55.5647 13.071 54.0098 15.5355 53.255 16.6387C53.1776 16.7678 53.0292 16.7419 53.0292 16.5678C53.0292 16.0645 54.784 10.6387 54.784 10.6387C54.784 10.6387 54.9905 9.88388 54.384 9.63227C54.384 9.63227 53.455 9.05808 52.7066 10.1871L49.0873 15.1097C48.8163 15.4839 48.6615 15.3613 48.6615 15.3613V15.0323L49.2421 11.8194C49.6937 9.35485 48.8357 9.23227 48.2873 9.12904C47.8873 9.12904 47.455 9.25808 47.1066 9.48388C45.9776 10.0323 45.126 12.271 45.126 12.271C45.126 12.271 44.8744 13.071 45.4227 13.4C45.6034 13.5032 45.8034 13.5742 46.0034 13.5484C46.8034 13.5032 46.9582 12.0194 47.5324 12.0194C47.6357 12.0194 47.6357 12.1419 47.6357 12.1678L45.7776 19.9807C45.6486 20.4323 45.8486 20.9097 46.2292 21.1613C46.4808 21.3097 46.7582 21.3355 47.0292 21.2903C47.2808 21.2129 47.5066 21.0387 47.6615 20.8129L48.3389 19.7549C49.3131 18.0194 51.1195 15.5355 51.3002 15.5355C51.3711 15.5355 51.3969 15.5355 51.3969 15.6129L50.7195 20.2065C50.6486 20.6065 50.8744 21.0387 51.2486 21.2129C51.5969 21.3355 51.9776 21.3097 52.3002 21.1355C52.6808 20.8323 53.0034 20.4581 53.2292 20.0323C53.6098 19.4258 55.4163 17.2968 56.5195 15.3355C56.5969 15.2065 56.6679 15.3355 56.6421 15.4129C56.4163 16.4387 56.2421 19.1807 56.2163 19.8581C56.1647 21.1871 57.1969 21.3355 57.2228 21.3355C57.9002 21.3871 58.5518 21.0839 58.926 20.5355" fill="#EEF2F6"/>
<path fill-rule="evenodd" clip-rule="evenodd" d="M7.55169 20.0323H5.54523V15.5355C5.57104 15.0323 5.46781 14.529 5.24201 14.1032C5.0162 13.7742 4.6162 13.5742 4.20975 13.6258C3.86136 13.6258 3.53233 13.7032 3.26136 13.8774C2.95814 14.0774 2.70652 14.3548 2.53233 14.6581V20.0323H0.525879V11.871H1.65491L2.4033 12.9742C2.6033 12.8 2.80975 12.6452 3.00975 12.4968C3.20975 12.3677 3.40975 12.271 3.63556 12.1677C3.85921 12.0688 4.08502 11.9936 4.31298 11.9419C4.53878 11.8903 4.7904 11.871 5.04201 11.871C5.31943 11.871 5.5904 11.8903 5.84201 11.9677C6.04201 12.0452 6.24846 12.1161 6.44846 12.2452C6.59685 12.3677 6.74523 12.5226 6.87427 12.671C7.02265 12.871 7.12588 13.0516 7.22265 13.2516C7.37749 13.0968 7.55169 12.9226 7.75169 12.7742C7.95169 12.6194 8.17749 12.471 8.42911 12.3484C8.65706 12.1936 8.90868 12.0667 9.18394 11.9677C9.48072 11.8903 9.78395 11.8452 10.113 11.8452C10.513 11.8452 10.8872 11.9419 11.242 12.1161C11.5646 12.3226 11.842 12.5742 12.0162 12.871C12.2162 13.2516 12.371 13.6258 12.442 14.0516C12.5452 14.529 12.5968 15.0065 12.5968 15.5097V20.0323H10.5646V15.5355C10.6098 15.0323 10.513 14.529 10.2614 14.1032C10.0356 13.7742 9.66136 13.5742 9.25491 13.6258C8.93233 13.6258 8.6033 13.7032 8.30652 13.8774C8.0033 14.0774 7.72588 14.329 7.55169 14.6581M19.1452 19.129C18.8678 19.4065 18.5194 19.6323 18.1646 19.7806C17.6936 19.9548 17.1904 20.0581 16.6872 20.0323C16.3323 20.0581 15.9581 19.9806 15.6356 19.8581C15.3302 19.729 15.0528 19.5527 14.8033 19.329C14.5796 19.0753 14.4033 18.7979 14.2743 18.4968C14.1517 18.1742 14.1001 17.8194 14.1001 17.471C14.1001 15.9613 15.2807 14.9806 17.1646 14.9806H19.171V14.529C19.171 14.2323 18.9968 13.9806 18.7452 13.8516C18.3452 13.6774 17.8936 13.5742 17.442 13.6C16.9388 13.6 16.4356 13.6774 15.9581 13.7742C15.5839 13.8774 15.2076 14.0043 14.8291 14.1548L14.6033 12.471C14.7259 12.3936 14.9065 12.3484 15.1323 12.271C15.3323 12.1936 15.5839 12.1419 15.8098 12.071C16.0356 12.0194 16.3323 11.9677 16.6356 11.9161C16.9388 11.871 17.2614 11.871 17.5904 11.871C18.5194 11.7936 19.4743 12.0968 20.1775 12.6968C20.8033 13.3484 21.1065 14.2323 21.0549 15.1097V20.0323H19.6227L19.1452 19.129ZM19.1452 16.3161H17.3646C16.9904 16.2903 16.6356 16.3871 16.3065 16.5936C16.1065 16.7936 15.9839 17.071 15.9839 17.3677C15.9839 17.6452 16.0807 17.8968 16.2872 18.0968C16.513 18.271 16.8098 18.3742 17.113 18.3484C17.3388 18.3484 17.5646 18.3226 17.7904 18.2516C17.9904 18.2 18.1904 18.1226 18.3646 18.0258C18.5409 17.8968 18.6936 17.7699 18.8227 17.6452C18.971 17.4968 19.0678 17.3419 19.171 17.1936L19.1452 16.3161ZM27.2291 15.8129L30.9194 20.0065H28.4098L24.9904 15.8645V20.0065H23.0098V8.83226H24.9904V15.8645L28.0291 11.7484H30.4678L27.2291 15.8129ZM35.2807 18.271C35.5839 18.271 35.913 18.2452 36.2098 18.1677C36.4872 18.1226 36.7646 18.0452 37.0162 17.9419C37.242 17.871 37.4678 17.7677 37.6678 17.6452C37.7646 17.5936 37.8678 17.5161 37.971 17.4452L38.3452 19.2258C37.9194 19.4516 37.4678 19.6516 36.9904 19.8065C36.4356 19.9548 35.8614 20.0323 35.2807 20.0323C34.6549 20.0323 34.0291 19.929 33.4227 19.729C32.9452 19.5548 32.4743 19.2774 32.0936 18.8968C31.7194 18.5484 31.442 18.0968 31.2678 17.6194C31.042 17.1161 30.9388 16.5613 30.913 15.9871C30.913 15.4581 30.9904 14.929 31.1646 14.4258C31.3452 13.929 31.5904 13.4968 31.9452 13.0968C32.2678 12.7226 32.7001 12.4194 33.1775 12.2194C34.2549 11.7936 35.4807 11.7936 36.5646 12.2194C37.0162 12.3936 37.3904 12.6968 37.7194 13.0452C38.0162 13.4 38.242 13.8 38.3969 14.2258C38.5194 14.6774 38.5968 15.1548 38.5968 15.6323C38.5968 15.7613 38.5968 15.9097 38.5968 16.0581C38.571 16.2129 38.5452 16.3613 38.5194 16.4903H32.971C32.9968 16.7656 33.0721 17.0151 33.1968 17.2387C33.3001 17.4645 33.4743 17.671 33.6743 17.8194C33.8743 17.9936 34.1001 18.1226 34.3775 18.1677C34.6528 18.271 34.9538 18.3226 35.2807 18.3226V18.271ZM34.9065 13.6774C34.6549 13.6774 34.4033 13.6968 34.1775 13.7742C33.9775 13.8258 33.7775 13.929 33.6291 14.0516C33.4485 14.1548 33.3259 14.3032 33.2227 14.4774C33.1259 14.6516 33.0485 14.8323 32.9968 15.0323H36.5388C36.5388 14.8581 36.513 14.6774 36.4356 14.5032C36.3839 14.3548 36.2614 14.2 36.1388 14.0774C35.9839 13.9484 35.8097 13.8516 35.6356 13.7742C35.3839 13.6968 35.1323 13.6516 34.9065 13.6774ZM75.6936 13.0194L78.3517 9.80645H78.9517V11.8387H81.2356V13.6H78.9517V16.9677C78.9517 17.1419 78.9775 17.3419 79.0291 17.5419C79.0807 17.6667 79.156 17.7936 79.2549 17.9226C79.3581 17.9936 79.4807 18.071 79.6097 18.0968C79.7323 18.1484 79.8614 18.1677 80.0098 18.1677C80.2356 18.1677 80.4614 18.1484 80.6614 18.071C80.8614 18.0452 81.0356 17.9677 81.2162 17.8968V19.6774C81.0141 19.7763 80.7861 19.8516 80.5323 19.9032C79.8356 20.0516 79.1065 20.0323 78.4291 19.8258C78.1001 19.729 77.8227 19.5548 77.571 19.329C77.371 19.1032 77.1969 18.8258 77.1001 18.5226C76.9969 18.1936 76.9194 17.8194 76.9452 17.4645V13.6516H75.642L75.6936 13.0194ZM84.6549 13.5419C84.9517 13.0452 85.3323 12.6129 85.8098 12.2903C86.2098 11.9871 86.713 11.8387 87.242 11.8645C87.3926 11.8387 87.5431 11.8387 87.6936 11.8645L87.9646 11.9097C87.9646 11.9097 87.9194 12.3613 87.6162 13.7677C87.4678 13.7484 87.313 13.7226 87.1646 13.7484C86.8098 13.7226 86.4872 13.7936 86.1581 13.9226C85.8614 14.0452 85.6098 14.2452 85.4098 14.4968C85.2033 14.7484 85.0291 15.0516 84.9323 15.3806C84.8291 15.7806 84.7775 16.1828 84.7775 16.5871V20.0258H82.771V11.8645H84.0291L84.6549 13.5419ZM97.5259 11.8581C98.0807 11.8323 98.6098 11.9548 99.0807 12.1806C99.513 12.4065 99.8614 12.7097 100.165 13.1097C100.442 13.5161 100.668 13.9677 100.79 14.4452C100.913 14.9484 100.99 15.471 100.99 15.9742C100.99 16.5032 100.913 17.0323 100.765 17.5355C100.642 18.0129 100.416 18.4387 100.113 18.8129C99.8098 19.1936 99.4614 19.4903 99.0356 19.6903C98.584 19.9226 98.0549 20.0194 97.5517 20.0194C97.0485 20.0194 96.571 19.9419 96.1194 19.7677C95.7452 19.5936 95.3969 19.3677 95.1194 19.0387V23.2839H93.113V11.8581H94.2872L95.0678 12.8387C95.371 12.5355 95.7452 12.2839 96.1711 12.0839C96.5969 11.929 97.0485 11.8323 97.5001 11.8581H97.5259ZM96.9775 13.6387C96.7517 13.6129 96.5259 13.6645 96.3259 13.7419C96.1259 13.8129 95.9452 13.9161 95.771 14.0387C95.6227 14.1419 95.4936 14.2903 95.371 14.4452C95.2678 14.5936 95.171 14.7419 95.1194 14.9226V17.2323C95.1969 17.3806 95.2936 17.5097 95.4227 17.6323C95.5452 17.7613 95.6743 17.8581 95.8227 17.9613C95.999 18.0602 96.1753 18.1355 96.3517 18.1871C96.8485 18.3097 97.3775 18.2839 97.8549 18.1097C98.0807 17.9871 98.3065 17.8323 98.4549 17.6323C98.6356 17.4323 98.7581 17.1806 98.8356 16.929C98.9065 16.6258 98.9581 16.3032 98.9839 15.9742C98.9839 15.6774 98.9323 15.3484 98.8356 15.0194C98.7581 14.7441 98.6313 14.4925 98.4549 14.2645C98.2807 14.0645 98.0807 13.8903 97.8291 13.7871C97.5775 13.6645 97.3259 13.6129 97.0485 13.6129L96.9775 13.6387ZM90.0291 8.49033C90.3065 8.49033 90.5775 8.61936 90.7581 8.81936C90.9581 9.01936 91.0807 9.27097 91.0549 9.54839C91.0549 10.1226 90.6033 10.6 90.0291 10.6C89.4485 10.6 88.9968 10.1226 88.9968 9.54839C88.9968 8.96774 89.4485 8.51613 90.0291 8.51613V8.49033ZM88.9968 11.8581H91.0098V20.0194H88.9968V11.8581Z" fill="#9CA3AF"/>
</g>
<defs>
<clipPath id="clip0_234_10909">
<rect width="100.516" height="32" fill="white" transform="translate(0.5)"/>
</clipPath>
</defs>
</svg>
