<svg width="161" height="28" viewBox="0 0 161 28" fill="none" xmlns="http://www.w3.org/2000/svg">
<g clip-path="url(#clip0_234_10933)">
<path d="M48.2581 19.5335V25.2094H45.4683V8.37164H47.6435L47.9743 9.83814C48.731 8.74999 49.8657 8.22954 51.1425 8.22954C53.7902 8.22954 55.3509 10.0271 55.3509 13.7161C55.3509 17.6417 53.4595 19.8177 50.055 19.8177C49.4877 19.8177 48.8255 19.7228 48.2581 19.5335ZM52.5138 14C52.5138 11.7299 51.7571 10.6417 50.244 10.6417C49.5349 10.6417 48.7782 11.0201 48.2581 11.635V17.4055C48.6365 17.5945 49.1093 17.689 49.5822 17.689C51.5681 17.689 52.5138 16.5067 52.5138 14ZM58.1404 3.78349C59.2754 3.78349 59.9845 4.49329 59.9845 5.48659C59.9845 6.47989 59.3227 7.14209 58.1404 7.14209C57.0529 7.14209 56.2966 6.47989 56.2966 5.48659C56.2966 4.49329 57.0529 3.78349 58.1404 3.78349ZM56.7694 8.41889H59.5589V19.6283H56.7694V8.41889ZM69.4415 19.1555C68.9687 19.4866 67.7391 19.8649 66.5099 19.8649C62.9634 19.8649 60.9775 17.8311 60.9775 14.1893C60.9775 10.7838 62.7271 8.22989 66.5572 8.22989C67.7864 8.22989 68.9214 8.51339 69.4415 8.84449V11.2094C68.5903 10.7838 67.7864 10.5945 66.9352 10.5945C64.8548 10.5945 63.8146 11.9665 63.8146 14.0472C63.8146 16.3177 64.9493 17.5 66.9828 17.5C67.8809 17.5 68.6376 17.311 69.4888 16.8378V19.1555H69.4415ZM74.8319 15.0405H73.6023V19.5811H70.8125V2.79054H73.6023V12.7704H74.9736L77.8107 8.41889H80.8841L77.1961 13.7634L80.9313 19.5811H77.6214L74.8319 15.0405Z" fill="#9CA3AF"/>
<path d="M80.7419 24.689V22.4665C81.1203 22.6082 81.7821 22.6555 82.255 22.6555C83.8625 22.6555 84.6665 22.1823 85.3756 20.0539L85.5177 19.6283H84.3826L80.9309 8.41889H83.9098L86.3213 16.6012L88.8276 8.41889H91.5699L87.7871 20.3854C86.7469 23.696 85.1393 24.9728 82.444 24.9728C81.8766 24.9728 81.1675 24.878 80.7419 24.689ZM91.6171 14.0945C91.6171 10.5 93.3668 8.22954 96.8657 8.22954C100.176 8.22954 101.925 10.3106 101.925 13.9527C101.925 17.5472 100.176 19.8649 96.6767 19.8649C93.4613 19.8177 91.6171 17.8311 91.6171 14.0945ZM99.041 14.0472C99.041 11.4933 98.3315 10.4527 96.7712 10.4527C95.2582 10.4527 94.5487 11.5878 94.5487 14.0472C94.5487 16.6012 95.2582 17.6417 96.7712 17.6417C98.2843 17.6417 99.041 16.5539 99.041 14.0472ZM109.916 18.4933C109.254 19.2972 108.261 19.8177 106.89 19.8177C104.573 19.8177 103.344 18.4457 103.344 15.9866V8.41889H106.181V15.5134C106.181 16.8854 106.701 17.4055 107.883 17.4055C108.545 17.4055 109.254 17.1216 109.727 16.6488V8.41889H112.517V16.696C112.517 17.3582 112.753 17.5945 113.226 17.5945C113.51 17.5945 113.746 17.5472 113.935 17.4055V19.3917C113.51 19.6756 112.848 19.8177 112.091 19.8177C110.909 19.8177 110.247 19.3917 109.916 18.4933ZM115.259 8.41889H117.576L117.86 10.2634C118.238 8.93899 119.042 8.22989 120.461 8.22989C120.886 8.22989 121.311 8.27714 121.643 8.41889V11.1149H120.886C119.704 11.1149 118.948 11.3039 118.096 12.0606V19.6283H115.307V8.41889H115.259ZM131.95 8.41889H134.267L134.551 10.2634C134.93 8.93899 135.733 8.18229 137.152 8.18229C137.577 8.18229 138.003 8.22989 138.334 8.37129V11.0677H137.577C136.395 11.0677 135.639 11.2567 134.788 12.0134V19.5811H131.998V8.41889H131.95ZM127.931 19.8177C125.331 19.8177 124.196 18.5405 124.196 15.9866V10.5H122.683V9.74329L123.061 8.41889H124.338L124.811 5.53384H127.27L127.033 8.41889H130.296L129.776 10.5H126.986V15.561C126.986 16.885 127.459 17.4527 128.735 17.4527C129.397 17.4527 130.059 17.2637 130.579 17.0271V19.25C130.059 19.5335 128.972 19.8177 127.931 19.8177ZM145.332 18.635C144.765 19.3917 143.819 19.8649 142.542 19.8649C140.462 19.8649 139.043 18.5878 139.043 16.5067C139.043 14.3311 140.367 13.0539 143.488 13.0539H145.143V12.6283C145.143 11.2094 144.528 10.7366 142.779 10.7366C141.739 10.7366 140.556 10.9728 139.705 11.3039V8.98659C140.509 8.60824 141.975 8.32439 143.393 8.32439C146.467 8.32439 147.932 9.79054 147.932 12.3917V16.8378C147.932 17.4527 148.169 17.7366 148.642 17.7366C148.878 17.7366 149.115 17.689 149.304 17.5476V19.439C148.878 19.7228 148.216 19.8649 147.46 19.8649C146.372 19.8177 145.663 19.3917 145.332 18.635ZM145.095 17.074V14.7094H143.961C142.353 14.7094 141.739 15.3244 141.739 16.2704C141.739 17.2161 142.353 17.7366 143.393 17.7366C144.102 17.7838 144.67 17.5472 145.095 17.074ZM152.046 3.78349C153.181 3.78349 153.891 4.49329 153.891 5.48659C153.891 6.47989 153.228 7.14209 152.046 7.14209C150.959 7.14209 150.202 6.47989 150.202 5.48659C150.202 4.49329 150.959 3.78349 152.046 3.78349ZM150.675 8.41889H153.465V19.6283H150.675V8.41889ZM155.309 2.79054H158.146V16.5539C158.146 17.3582 158.382 17.6417 159.044 17.6417C159.281 17.6417 159.564 17.5945 159.801 17.4527V19.3917C159.423 19.6283 158.619 19.7701 157.957 19.7701C156.302 19.7701 155.356 19.0134 155.356 17.1216V2.79054H155.309Z" fill="#9CA3AF"/>
<path d="M39.039 11.8244L30.2271 1.4189C29.6076 0.6622 28.6549 0 27.5594 0H5.98186C4.07646 0 3.07616 1.27715 2.88541 3.12165L0.694406 24.878C0.456406 26.5338 2.12346 28 3.83811 28H11.8405L14.1271 9.8378C14.1747 9.2701 14.2699 8.93935 14.6031 8.6555C14.9366 8.37165 15.3178 8.2299 15.7941 8.2299C16.1277 8.2299 16.3657 8.27715 16.604 8.4189L27.2262 12.6284C27.8453 12.865 28.2741 13.4323 28.2741 14.0948C28.2741 14.7567 27.8453 15.3244 27.2262 15.5606L18.6046 19.3445C17.4136 20.0539 16.9848 20.5744 16.604 22.1823L15.9369 28H26.1307C27.5594 28 28.0837 27.2905 28.7977 26.5811L39.039 16.1756C40.1345 14.8988 40.1345 13.1012 39.039 11.8244Z" fill="#6B7280"/>
</g>
<defs>
<clipPath id="clip0_234_10933">
<rect width="159.6" height="28" fill="white" transform="translate(0.671631)"/>
</clipPath>
</defs>
</svg>
