<svg width="86" height="30" viewBox="0 0 86 30" fill="none" xmlns="http://www.w3.org/2000/svg">
<g clip-path="url(#clip0_234_10915)">
<path fill-rule="evenodd" clip-rule="evenodd" d="M14.0515 8.73049C14.6599 8.5189 15.3589 8.78474 15.6257 9.38154C15.9404 10.0706 15.5883 10.8681 14.8999 11.1068C13.726 11.5137 12.5308 11.8175 11.3249 12.0128C10.1296 12.2082 9.2492 13.2499 9.2492 14.4814V25.6305H6.50654V14.4869C6.50654 13.2553 5.62611 12.2136 4.43086 12.0183C3.2196 11.8175 2.02435 11.5191 0.855771 11.1122C0.167438 10.8681 -0.179398 10.076 0.130087 9.38154C0.396884 8.78474 1.0959 8.5189 1.70419 8.73049C3.43304 9.33271 5.22591 9.66908 7.02412 9.75046H8.73161C10.5299 9.66908 12.3227 9.32728 14.0515 8.73049ZM29.9205 13.6188C30.2033 13.8412 30.4328 14.1016 30.5982 14.4C30.8223 14.8015 30.9344 15.2627 30.945 15.7564V20.8671C30.945 21.6484 30.833 22.3428 30.6089 22.9396C30.3847 23.5364 30.0432 24.041 29.5897 24.437C29.1308 24.8385 28.5332 25.126 27.7968 25.3214C27.0605 25.5166 26.1907 25.6089 25.1769 25.6089C24.3391 25.6089 23.6135 25.5112 22.9998 25.3105C22.3808 25.1098 21.874 24.806 21.4897 24.3936C21.2336 24.1169 21.0309 23.7968 20.8868 23.4333C20.6947 22.9505 20.5986 22.3916 20.5986 21.7677V21.6212C20.6093 21.236 20.6626 20.8725 20.764 20.5361C20.8655 20.1998 21.0095 19.8905 21.1963 19.6084C21.5751 19.0442 22.1301 18.6047 22.8397 18.2792C23.3093 18.0622 23.8589 17.8995 24.4725 17.7855H24.4779H24.4832C25.2462 17.6661 26.0946 17.5196 27.0338 17.3406C27.3165 17.2972 27.5514 17.2212 27.7435 17.129C27.9356 17.0368 28.0796 16.9229 28.1864 16.7926C28.261 16.7059 28.3144 16.6082 28.3571 16.4997C28.4105 16.3586 28.4425 16.1905 28.4425 15.9951C28.4425 15.8215 28.4105 15.675 28.3518 15.5448C28.293 15.4146 28.2077 15.3061 28.085 15.2085C27.9995 15.1433 27.9036 15.0836 27.7861 15.0294C27.6314 14.9589 27.4446 14.9046 27.2259 14.8612C26.9377 14.8015 26.5855 14.7744 26.1854 14.7744C26.0893 14.7744 25.9933 14.7744 25.8919 14.7798C25.449 14.7852 25.0755 14.834 24.7714 14.9209C24.4672 15.0077 24.2377 15.127 24.067 15.2735C23.955 15.3712 23.8696 15.4851 23.8055 15.6099C23.7201 15.7835 23.6775 15.9788 23.6775 16.223V16.44H21.1376V16.223C21.1376 15.5774 21.2656 15.0023 21.5271 14.514C21.7885 14.0311 22.1834 13.635 22.6956 13.3421C23.0371 13.1468 23.432 12.9949 23.8749 12.881C24.4672 12.7345 25.1502 12.653 25.9292 12.6476C26.8364 12.6476 27.6154 12.729 28.2824 12.8864C28.944 13.0491 29.4936 13.2879 29.9205 13.6188ZM26.8684 19.4456C26.5109 19.5054 26.0893 19.565 25.6037 19.6247C25.1449 19.6898 24.7606 19.7983 24.4512 19.9285C24.1364 20.0695 23.8909 20.2486 23.7095 20.4548C23.5868 20.5959 23.4907 20.7477 23.4214 20.9214C23.3306 21.1492 23.2826 21.4096 23.2826 21.7135C23.2826 22.0553 23.3413 22.332 23.4534 22.5598C23.5654 22.7877 23.7308 22.9667 23.9603 23.1078C24.1097 23.2 24.2965 23.2814 24.5099 23.3356C24.7927 23.4116 25.1342 23.4496 25.5344 23.4496C26.1053 23.4496 26.5855 23.379 26.9804 23.2435C27.3753 23.1078 27.6795 22.907 27.9089 22.6466C28.0636 22.4676 28.181 22.2669 28.2717 22.0281C28.3891 21.708 28.4531 21.3337 28.4531 20.8888V19.0008L28.3571 19.0496C28.1811 19.131 27.9782 19.2015 27.7488 19.2612C27.5194 19.3263 27.2259 19.386 26.8684 19.4456ZM14.9479 13.9224C15.3482 13.6078 15.8124 13.3636 16.3353 13.1846C17.0344 12.9459 17.84 12.8319 18.7525 12.8319H19.7129V15.371H18.5764C18.0161 15.371 17.5466 15.4524 17.157 15.5989C16.7675 15.7454 16.4687 15.9678 16.2339 16.2554C16.0792 16.4452 15.9511 16.6731 15.8604 16.9389C15.7377 17.2916 15.6684 17.7148 15.663 18.203V25.4134H13.1658V18.5177C13.1658 17.4706 13.3099 16.5646 13.6033 15.7942C13.9021 15.0238 14.3504 14.3944 14.9479 13.9224ZM41.4302 12.8322C41.1901 12.8322 40.9713 12.8647 40.7632 12.9243C40.4537 13.0166 40.1817 13.1902 39.9682 13.4235C39.7494 13.6622 39.584 13.9606 39.4666 14.3241L36.9801 21.6972L34.0452 12.8322H31.4307L31.5321 13.1197L35.7688 25.4082H38.2287L42.5668 12.8322H41.4302Z" fill="#9CA3AF"/>
<path fill-rule="evenodd" clip-rule="evenodd" d="M10.3006 6.21314C10.3006 7.57348 9.21602 8.67627 7.87808 8.67627C6.54017 8.67627 5.45557 7.57348 5.45557 6.21314C5.45557 4.85279 6.54017 3.75002 7.87808 3.75002C9.21602 3.75002 10.3006 4.85279 10.3006 6.21314ZM55.3254 20.178L55.2774 20.3245C55.1066 20.8453 54.8931 21.3011 54.6371 21.6917C54.2529 22.2722 53.778 22.7117 53.2016 23.0101C52.6254 23.3084 51.9531 23.4712 51.1633 23.4929C50.379 23.4712 49.7013 23.3247 49.1251 23.0643C48.6928 22.869 48.314 22.6086 47.9831 22.2777C47.4922 21.7839 47.1187 21.1383 46.8572 20.3245C46.5958 19.5107 46.4571 18.5341 46.4411 17.3893C46.4571 16.3586 46.5691 15.4633 46.7772 14.7038C46.932 14.1342 47.1454 13.6404 47.4068 13.2172C47.8017 12.5879 48.3086 12.1213 48.9382 11.8066C49.5679 11.492 50.331 11.3346 51.2274 11.3346H51.2914C52.1771 11.3346 52.9082 11.5028 53.4951 11.8229C53.7886 11.9857 54.0447 12.1864 54.2689 12.4252C54.493 12.6638 54.6851 12.946 54.8451 13.2769C54.9306 13.4722 55.0319 13.6458 55.144 13.8032C55.3201 14.0365 55.5281 14.2209 55.7736 14.3403C56.0137 14.4597 56.2859 14.5193 56.5793 14.5193H57.8813L57.8493 14.2697C57.7426 13.5048 57.5398 12.8049 57.2356 12.1864C56.9315 11.5679 56.526 11.02 56.0191 10.5534C55.4801 10.0705 54.8345 9.70702 54.0928 9.4683C53.3457 9.22959 52.5026 9.11023 51.5582 9.11023H51.3821C50.1441 9.13193 49.0503 9.32182 48.1112 9.6799C47.4015 9.95116 46.7826 10.3147 46.2436 10.7812C45.4379 11.4757 44.8349 12.3872 44.4401 13.4993C44.0399 14.6116 43.8425 15.9245 43.8371 17.4382C43.8317 18.7837 43.9758 19.9664 44.2746 20.9918C44.4987 21.7568 44.8029 22.435 45.2031 23.0155C45.7954 23.889 46.5905 24.5508 47.5669 24.9849C48.5434 25.4189 49.7013 25.6359 51.0353 25.6359H51.2327C52.1451 25.6359 52.9722 25.5274 53.7086 25.3158C54.8185 24.9903 55.7256 24.4207 56.4192 23.6014C57.1129 22.7822 57.5931 21.7297 57.8546 20.4438L57.908 20.1834H57.6466H55.3254V20.178ZM61.4189 9.87524C61.2855 9.70706 61.1094 9.58227 60.896 9.50089C60.6878 9.41951 60.4477 9.38153 60.1809 9.38153H59.2205V25.4081H61.7176V25.1911V10.8952C61.7176 10.6619 61.6856 10.4449 61.6216 10.255C61.5735 10.114 61.5042 9.98375 61.4189 9.87524ZM72.4535 13.6187C72.7363 13.8412 72.9658 14.1016 73.1312 14.4C73.3553 14.8015 73.4673 15.2626 73.478 15.7564V20.867C73.478 21.6483 73.366 22.3428 73.1418 22.9395C72.9178 23.5364 72.5763 24.0409 72.1227 24.437C71.6638 24.8385 71.0662 25.126 70.3298 25.3213C69.5934 25.5166 68.7237 25.6089 67.7098 25.6089C66.8721 25.6089 66.1464 25.5112 65.5328 25.3105C64.9138 25.1097 64.4069 24.8059 64.0227 24.3935C63.7666 24.1169 63.5638 23.7968 63.4198 23.4333C63.2277 22.945 63.1316 22.3861 63.1316 21.7622V21.6212C63.1423 21.236 63.1956 20.8725 63.297 20.5361C63.3984 20.1997 63.5424 19.8905 63.7293 19.6084C64.1081 19.0441 64.663 18.6047 65.3727 18.2791C65.8423 18.0621 66.3918 17.8994 67.0055 17.7855H67.0108H67.0162C67.7793 17.666 68.6277 17.5196 69.5668 17.3405C69.8496 17.2971 70.0843 17.2212 70.2764 17.129C70.4685 17.0367 70.6126 16.9228 70.7193 16.7926C70.794 16.7058 70.8474 16.6081 70.8901 16.4996C70.9434 16.3585 70.9754 16.1904 70.9754 15.995C70.9754 15.8215 70.9434 15.675 70.8848 15.5447C70.8261 15.4145 70.7407 15.306 70.6179 15.2084C70.5326 15.1433 70.4365 15.0836 70.3192 15.0294C70.1644 14.9588 69.9777 14.9045 69.7588 14.8611C69.4708 14.8015 69.1185 14.7744 68.7183 14.7744C68.6223 14.7744 68.5263 14.7744 68.4248 14.7798C67.982 14.7852 67.6085 14.834 67.3043 14.9208C67.0002 15.0076 66.7708 15.127 66.6 15.2735C66.4879 15.3711 66.4025 15.485 66.3385 15.6099C66.2532 15.7835 66.2104 15.9788 66.2104 16.223V16.44H63.6705V16.223C63.6705 15.5773 63.7986 15.0022 64.0601 14.514C64.3215 14.031 64.7163 13.635 65.2286 13.342C65.5701 13.1467 65.965 12.9948 66.4078 12.8809C67.0002 12.7344 67.6832 12.653 68.4623 12.6476C69.3693 12.6476 70.1484 12.729 70.8154 12.8863C71.477 13.049 72.0267 13.2878 72.4535 13.6187ZM69.396 19.4456C69.0385 19.5053 68.6169 19.565 68.1314 19.6246C67.6778 19.6897 67.2937 19.7983 66.9788 19.9285C66.664 20.0695 66.4185 20.2485 66.2371 20.4547C66.1144 20.5958 66.0183 20.7477 65.949 20.9213C65.8583 21.1492 65.8103 21.4096 65.8103 21.7134C65.8103 22.0552 65.8689 22.3319 65.981 22.5598C66.0931 22.7876 66.2585 22.9667 66.4879 23.1077C66.6373 23.2 66.8241 23.2814 67.0375 23.3356C67.3203 23.4115 67.6618 23.4495 68.062 23.4495C68.633 23.4495 69.1132 23.379 69.5081 23.2434C69.9029 23.1077 70.2071 22.907 70.4365 22.6465C70.5913 22.4675 70.7087 22.2668 70.7993 22.028C70.9168 21.708 70.9808 21.3336 70.9808 20.8888V19.0007L70.8848 19.0495C70.7087 19.131 70.5059 19.2015 70.2764 19.2611C70.047 19.3262 69.7535 19.386 69.396 19.4456ZM85.3877 15.6479C85.2227 15.1434 84.9927 14.6985 84.7052 14.3187C84.2677 13.7436 83.6802 13.3095 82.9653 13.0275C82.2503 12.7453 81.4072 12.6043 80.4307 12.6043C79.5717 12.6043 78.8086 12.7128 78.1469 12.9352C77.6507 13.1034 77.2132 13.3313 76.8343 13.6242C76.2687 14.0637 75.8418 14.655 75.559 15.3712C75.2762 16.0874 75.1428 16.9391 75.1428 17.9103V18.0188V25.4027H77.64V17.791C77.64 17.2918 77.6987 16.8632 77.8161 16.5051C77.9015 16.2339 78.0189 16.006 78.1682 15.8106C78.3924 15.5177 78.6805 15.2952 79.0541 15.1488C79.4276 14.9969 79.8812 14.9209 80.4254 14.9209C80.9003 14.9209 81.3058 14.9805 81.6473 15.1C81.9034 15.1867 82.1222 15.3115 82.309 15.4635C82.5864 15.6913 82.7999 15.9897 82.944 16.3749C83.088 16.7601 83.1627 17.2321 83.1627 17.791V23.8836C83.1627 24.1169 83.1947 24.334 83.2587 24.5238C83.3068 24.6649 83.376 24.795 83.4668 24.909C83.6002 25.0772 83.776 25.202 83.9902 25.2834C84.1977 25.3647 84.4377 25.4027 84.7052 25.4027H85.7135V18.0188V17.9645C85.7135 17.091 85.6068 16.3206 85.3877 15.6479Z" fill="#6B7280"/>
</g>
<defs>
<clipPath id="clip0_234_10915">
<rect width="85.8333" height="22.5" fill="white" transform="translate(0.0161133 3.75)"/>
</clipPath>
</defs>
</svg>
